<svg xmlns="http://www.w3.org/2000/svg" width="1024" height="1024" viewBox="0 0 1024 1024">
  <rect width="1024" height="1024" rx="220" fill="#0b0b0f"/>
  <g transform="translate(246.19 717.44) scale(0.4267 -0.4267)" fill="#e6e6e6">
    <path d="M298 175Q347 276 376.0 421.0Q405 566 405 728Q405 758 404.0 797.0Q403 836 401 863H339Q286 863 254.0 845.0Q222 827 201 798Q184 775 174.5 739.0Q165 703 161 661H98Q95 689 93.0 716.5Q91 744 91 779Q91 813 104.0 847.0Q117 881 147 914Q173 944 218.0 964.5Q263 985 318 985H1175V863H950V209Q950 149 987.5 113.5Q1025 78 1095 78Q1109 78 1128.5 79.0Q1148 80 1163 81V17Q1116 1 1069.0 -10.0Q1022 -21 952 -21Q857 -21 809.5 37.0Q762 95 762 195V863H499Q500 837 501.0 799.5Q502 762 502 719Q502 595 479.5 448.0Q457 301 413 195Q370 91 315.0 34.5Q260 -22 187 -22Q127 -22 99.0 16.5Q71 55 71 97Q71 133 97.5 167.5Q124 202 176 202Q208 202 242.5 191.5Q277 181 298 175Z"/>
  </g>
</svg>
